<svg width="50" height="50" viewBox="0 0 50 50" fill="none" xmlns="http://www.w3.org/2000/svg">
<rect width="50" height="50" rx="25" fill="white"/>
<path d="M25.4 43.064C21.8427 43.064 18.6533 42.2513 15.832 40.626C13.0413 38.97 10.864 36.7927 9.3 34.094C7.76667 31.3647 7 28.482 7 25.446C7 22.3793 7.736 19.4353 9.208 16.614C10.68 13.762 12.8113 11.4467 15.602 9.668C18.3927 7.88933 21.6587 7 25.4 7C29.0493 7 32.254 7.84333 35.014 9.53C37.774 11.2167 39.89 13.4707 41.362 16.292C42.834 19.0827 43.57 22.134 43.57 25.446C43.57 28.39 42.834 31.2267 41.362 33.956C39.9207 36.6547 37.82 38.8473 35.06 40.534C32.3 42.2207 29.08 43.064 25.4 43.064ZM25.446 36.992C27.746 36.992 29.8007 36.5167 31.61 35.566C33.45 34.5847 34.876 33.22 35.888 31.472C36.9307 29.6933 37.452 27.6847 37.452 25.446C37.452 23.0847 36.9613 20.9687 35.98 19.098C34.9987 17.2273 33.588 15.7553 31.748 14.682C29.908 13.578 27.7307 13.026 25.216 13.026C22.916 13.026 20.8613 13.578 19.052 14.682C17.2733 15.7553 15.878 17.2427 14.866 19.144C13.854 21.0453 13.348 23.146 13.348 25.446C13.348 27.838 13.9307 29.908 15.096 31.656C16.292 33.404 17.81 34.738 19.65 35.658C21.5207 36.5473 23.4527 36.992 25.446 36.992Z" fill="#1A1A1A"/>
</svg>
