<svg width="153" height="36" viewBox="0 0 153 36" fill="none" xmlns="http://www.w3.org/2000/svg">
<path d="M139.651 36C134.598 36 131.614 33.1604 131.614 28.877C131.614 24.5455 134.838 21.8503 140.373 21.4171L147.785 20.8396V20.1658C147.785 16.2193 145.426 14.8235 142.25 14.8235C138.448 14.8235 136.282 16.508 136.282 19.3476H132.336C132.336 14.4385 136.378 11.2139 142.443 11.2139C148.266 11.2139 152.213 14.2941 152.213 20.6471V35.4225H148.362L147.881 31.6203C146.678 34.3155 143.453 36 139.651 36ZM140.951 32.4866C145.234 32.4866 147.833 29.6952 147.833 25.2674V24.016L141.817 24.4973C137.822 24.8824 136.186 26.4225 136.186 28.7326C136.186 31.2353 138.015 32.4866 140.951 32.4866Z" fill="#1A1A1A"/>
<path d="M117.881 35.4225L108.4 11.8877H113.213L118.363 25.0267C119.181 27.2406 119.855 29.2139 120.24 30.6577C120.625 29.1176 121.395 27.0962 122.213 25.0267L127.459 11.8877H132.175L122.357 35.4225H117.881Z" fill="#1A1A1A"/>
<path d="M104.335 6.30481C102.698 6.30481 101.351 4.95722 101.351 3.32085C101.351 1.63636 102.698 0.336899 104.335 0.336899C105.971 0.336899 107.319 1.63636 107.319 3.32085C107.319 4.95722 105.971 6.30481 104.335 6.30481ZM102.121 35.4225V11.8877H106.645V35.4225H102.121Z" fill="#1A1A1A"/>
<path d="M80.8867 35.4225H76.3627V11.8877H80.4536L80.9349 15.4973C82.4268 12.8021 85.4108 11.2139 88.7317 11.2139C94.9402 11.2139 97.7798 15.016 97.7798 21.0321V35.4225H93.2557V22.0428C93.2557 17.2781 91.0418 15.3529 87.5766 15.3529C83.3413 15.3529 80.8867 18.385 80.8867 22.9572V35.4225Z" fill="#1A1A1A"/>
<path d="M41.3107 35.4225H36.7866V11.8877H40.8294L41.2626 14.9679C42.4658 12.754 44.9684 11.2139 48.2893 11.2139C51.947 11.2139 54.546 13.0428 55.7492 15.9786C56.8561 13.0428 59.6957 11.2139 63.3535 11.2139C68.7438 11.2139 72.0166 14.5829 72.0166 20.0214V35.4225H67.5888V21.1283C67.5888 17.4225 65.5192 15.3048 62.3428 15.3048C58.9257 15.3048 56.6636 17.7112 56.6636 21.4652V35.4225H52.1877V21.0802C52.1877 17.3743 50.1663 15.3529 46.9898 15.3529C43.5727 15.3529 41.3107 17.7112 41.3107 21.4652V35.4225Z" fill="#1A1A1A"/>
<path d="M33.4492 18C33.4492 28.5882 26.5187 36 16.6524 36C6.83422 36 0 28.5882 0 18C0 7.45989 6.88235 0 16.7005 0C26.5668 0 33.4492 7.41177 33.4492 18ZM28.492 18C28.492 9.91444 23.7754 4.57219 16.7005 4.57219C9.62567 4.57219 4.95722 9.91444 4.95722 18C4.95722 26.0856 9.62567 31.4759 16.7005 31.4759C23.7754 31.4759 28.492 26.0374 28.492 18Z" fill="#1A1A1A"/>
</svg>
