<svg width="164" height="37" viewBox="0 0 164 37" fill="none" xmlns="http://www.w3.org/2000/svg">
<path d="M163.676 15.042C163.461 15.042 163.231 15.088 162.986 15.18C162.771 15.272 162.664 15.3947 162.664 15.548V33.948C162.664 34.1013 162.771 34.224 162.986 34.316C163.231 34.408 163.461 34.454 163.676 34.454V35.328H156.868V32.798C154.936 34.8833 152.498 35.926 149.554 35.926C147.315 35.926 145.337 35.4813 143.62 34.592C141.933 33.672 140.615 32.3687 139.664 30.682C138.744 28.9953 138.284 27.0327 138.284 24.794C138.284 22.6167 138.79 20.6847 139.802 18.998C140.845 17.2807 142.225 15.962 143.942 15.042C145.659 14.0913 147.53 13.616 149.554 13.616C152.498 13.616 154.936 14.7507 156.868 17.02V14.168H163.676V15.042ZM150.244 31.05C151.501 31.05 152.621 30.774 153.602 30.222C154.614 29.6393 155.396 28.888 155.948 27.968C156.5 27.0173 156.776 26.0053 156.776 24.932C156.776 23.092 156.163 21.574 154.936 20.378C153.74 19.182 152.176 18.584 150.244 18.584C148.373 18.584 146.825 19.1667 145.598 20.332C144.402 21.4973 143.804 22.9847 143.804 24.794C143.804 26.6953 144.417 28.2133 145.644 29.348C146.901 30.4827 148.435 31.05 150.244 31.05Z" fill="#1A1A1A"/>
<path d="M138.055 15.042C137.441 15.042 137.058 15.1647 136.905 15.41L128.579 33.258C128.487 33.4727 128.441 33.6567 128.441 33.81C128.441 34.0553 128.533 34.224 128.717 34.316C128.931 34.408 129.146 34.454 129.361 34.454V35.328H120.069V34.454C120.283 34.454 120.498 34.408 120.713 34.316C120.927 34.1933 121.035 33.994 121.035 33.718C121.035 33.5647 120.989 33.396 120.897 33.212L113.215 15.456C113.123 15.18 112.755 15.042 112.111 15.042V14.168H120.115V15.042C119.747 15.042 119.501 15.134 119.379 15.318C119.287 15.4713 119.287 15.6553 119.379 15.87L125.037 29.072L131.017 15.824C131.047 15.7933 131.063 15.7473 131.063 15.686C131.063 15.5327 130.94 15.3947 130.695 15.272C130.48 15.1187 130.204 15.042 129.867 15.042V14.168H138.055V15.042Z" fill="#1A1A1A"/>
<path d="M106.821 10.304C105.84 10.304 104.996 9.96667 104.291 9.29201C103.616 8.61734 103.279 7.77401 103.279 6.76201C103.279 5.81134 103.616 4.99867 104.291 4.32401C104.996 3.61867 105.84 3.26601 106.821 3.26601C107.802 3.26601 108.63 3.61867 109.305 4.32401C109.98 4.99867 110.317 5.81134 110.317 6.76201C110.317 7.77401 109.98 8.61734 109.305 9.29201C108.63 9.96667 107.802 10.304 106.821 10.304ZM103.831 15.548C103.831 15.3947 103.708 15.272 103.463 15.18C103.248 15.088 103.034 15.042 102.819 15.042V14.168H110.731V15.042C110.516 15.042 110.286 15.088 110.041 15.18C109.826 15.272 109.719 15.3947 109.719 15.548V33.948C109.719 34.1013 109.826 34.224 110.041 34.316C110.286 34.408 110.516 34.454 110.731 34.454V35.328H102.819V34.454C103.034 34.454 103.248 34.408 103.463 34.316C103.708 34.224 103.831 34.1013 103.831 33.948V15.548Z" fill="#1A1A1A"/>
<path d="M98.7099 33.948C98.7099 34.1013 98.8173 34.224 99.0319 34.316C99.2773 34.408 99.5226 34.454 99.7679 34.454V35.328H91.6719V34.454C91.9173 34.454 92.1473 34.408 92.3619 34.316C92.6073 34.224 92.7299 34.1013 92.7299 33.948V24.38C92.7299 22.816 92.3466 21.482 91.5799 20.378C90.8133 19.2433 89.6633 18.676 88.1299 18.676C86.5659 18.676 85.2933 19.1973 84.3119 20.24C83.3613 21.2827 82.8859 22.7853 82.8859 24.748V33.948C82.8859 34.1013 82.9933 34.224 83.2079 34.316C83.4533 34.408 83.6986 34.454 83.9439 34.454V35.328H75.8939V34.454C76.1393 34.454 76.3693 34.408 76.5839 34.316C76.8293 34.224 76.9519 34.1013 76.9519 33.948V15.548C76.9519 15.3947 76.8293 15.272 76.5839 15.18C76.3693 15.088 76.1546 15.042 75.9399 15.042V14.168H82.8859V16.054C83.6833 15.318 84.6186 14.7507 85.6919 14.352C86.7959 13.9227 87.9153 13.708 89.0499 13.708C91.0126 13.708 92.7146 14.122 94.1559 14.95C95.6279 15.778 96.7473 16.8973 97.5139 18.308C98.3113 19.688 98.7099 21.2367 98.7099 22.954V33.948Z" fill="#1A1A1A"/>
<path d="M72.4256 33.948C72.4256 34.1013 72.5329 34.224 72.7476 34.316C72.9929 34.408 73.2382 34.454 73.4836 34.454V35.328H65.3876V34.454C65.6329 34.454 65.8629 34.408 66.0776 34.316C66.3229 34.224 66.4456 34.1013 66.4456 33.948V24.38C66.4456 20.5773 65.1882 18.676 62.6736 18.676C61.4469 18.676 60.4962 19.182 59.8216 20.194C59.1469 21.206 58.8096 22.724 58.8096 24.748V33.948C58.8096 34.1013 58.9169 34.224 59.1316 34.316C59.3769 34.408 59.6222 34.454 59.8676 34.454V35.328H51.8176V34.454C52.0629 34.454 52.2929 34.408 52.5076 34.316C52.7529 34.224 52.8756 34.1013 52.8756 33.948V24.38C52.8756 22.6933 52.6149 21.3287 52.0936 20.286C51.5722 19.2127 50.6062 18.676 49.1956 18.676C48.0916 18.676 47.2022 19.09 46.5276 19.918C45.8836 20.7153 45.5002 21.9267 45.3776 23.552V33.948C45.3776 34.1013 45.5002 34.224 45.7456 34.316C45.9909 34.408 46.2209 34.454 46.4356 34.454V35.328H38.2476V34.454C38.4622 34.454 38.6922 34.408 38.9376 34.316C39.1829 34.224 39.3056 34.1013 39.3056 33.948V15.548C39.3056 15.3947 39.1829 15.272 38.9376 15.18C38.7229 15.088 38.5082 15.042 38.2936 15.042V14.168H45.3776V15.41C46.6042 14.2753 48.1682 13.708 50.0696 13.708C51.7869 13.708 53.2589 14.0453 54.4856 14.72C55.7429 15.364 56.7242 16.2687 57.4296 17.434C57.9816 16.2993 58.8249 15.3947 59.9596 14.72C61.1249 14.0453 62.4282 13.708 63.8696 13.708C66.7522 13.708 68.8989 14.5667 70.3096 16.284C71.7202 18.0013 72.4256 20.2247 72.4256 22.954V33.948Z" fill="#1A1A1A"/>
<path d="M18.4 36.064C14.8427 36.064 11.6533 35.2513 8.832 33.626C6.04133 31.97 3.864 29.7927 2.3 27.094C0.766667 24.3647 0 21.482 0 18.446C0 15.3793 0.736 12.4353 2.208 9.614C3.68 6.762 5.81133 4.44667 8.602 2.668C11.3927 0.889333 14.6587 0 18.4 0C22.0493 0 25.254 0.843333 28.014 2.53C30.774 4.21666 32.89 6.47066 34.362 9.292C35.834 12.0827 36.57 15.134 36.57 18.446C36.57 21.39 35.834 24.2267 34.362 26.956C32.9207 29.6547 30.82 31.8473 28.06 33.534C25.3 35.2207 22.08 36.064 18.4 36.064ZM18.446 29.992C20.746 29.992 22.8007 29.5167 24.61 28.566C26.45 27.5847 27.876 26.22 28.888 24.472C29.9307 22.6933 30.452 20.6847 30.452 18.446C30.452 16.0847 29.9613 13.9687 28.98 12.098C27.9987 10.2273 26.588 8.75533 24.748 7.682C22.908 6.578 20.7307 6.026 18.216 6.026C15.916 6.026 13.8613 6.578 12.052 7.682C10.2733 8.75533 8.878 10.2427 7.866 12.144C6.854 14.0453 6.348 16.146 6.348 18.446C6.348 20.838 6.93067 22.908 8.096 24.656C9.292 26.404 10.81 27.738 12.65 28.658C14.5207 29.5473 16.4527 29.992 18.446 29.992Z" fill="#1A1A1A"/>
</svg>
