<svg width="153" height="36" viewBox="0 0 153 36" fill="none" xmlns="http://www.w3.org/2000/svg">
<path d="M139.651 36C134.597 36 131.613 33.1604 131.613 28.877C131.613 24.5455 134.838 21.8503 140.373 21.4171L147.784 20.8396V20.1658C147.784 16.2193 145.426 14.8235 142.25 14.8235C138.447 14.8235 136.282 16.508 136.282 19.3476H132.335C132.335 14.4385 136.378 11.2139 142.442 11.2139C148.266 11.2139 152.212 14.2941 152.212 20.6471V35.4225H148.362L147.881 31.6203C146.677 34.3155 143.453 36 139.651 36ZM140.95 32.4866C145.234 32.4866 147.833 29.6952 147.833 25.2674V24.016L141.816 24.4973C137.822 24.8824 136.185 26.4225 136.185 28.7326C136.185 31.2353 138.014 32.4866 140.95 32.4866Z" fill="white"/>
<path d="M117.882 35.4225L108.4 11.8877H113.213L118.363 25.0267C119.181 27.2406 119.855 29.2139 120.24 30.6577C120.625 29.1176 121.395 27.0962 122.213 25.0267L127.459 11.8877H132.176L122.358 35.4225H117.882Z" fill="white"/>
<path d="M104.335 6.30481C102.698 6.30481 101.351 4.95722 101.351 3.32085C101.351 1.63636 102.698 0.336899 104.335 0.336899C105.971 0.336899 107.318 1.63636 107.318 3.32085C107.318 4.95722 105.971 6.30481 104.335 6.30481ZM102.121 35.4225V11.8877H106.645V35.4225H102.121Z" fill="white"/>
<path d="M80.8864 35.4225H76.3623V11.8877H80.4532L80.9345 15.4973C82.4265 12.8021 85.4104 11.2139 88.7313 11.2139C94.9398 11.2139 97.7794 15.016 97.7794 21.0321V35.4225H93.2554V22.0428C93.2554 17.2781 91.0414 15.3529 87.5762 15.3529C83.3409 15.3529 80.8864 18.385 80.8864 22.9572V35.4225Z" fill="white"/>
<path d="M41.3102 35.4225H36.7861V11.8877H40.8289L41.2621 14.9679C42.4653 12.754 44.968 11.2139 48.2888 11.2139C51.9466 11.2139 54.5455 13.0428 55.7487 15.9786C56.8556 13.0428 59.6952 11.2139 63.353 11.2139C68.7433 11.2139 72.0161 14.5829 72.0161 20.0214V35.4225H67.5883V21.1283C67.5883 17.4225 65.5187 15.3048 62.3423 15.3048C58.9252 15.3048 56.6631 17.7112 56.6631 21.4652V35.4225H52.1872V21.0802C52.1872 17.3743 50.1658 15.3529 46.9893 15.3529C43.5722 15.3529 41.3102 17.7112 41.3102 21.4652V35.4225Z" fill="white"/>
<path d="M33.4492 18C33.4492 28.5882 26.5187 36 16.6524 36C6.83422 36 0 28.5882 0 18C0 7.45989 6.88235 0 16.7005 0C26.5668 0 33.4492 7.41177 33.4492 18ZM28.492 18C28.492 9.91444 23.7754 4.57219 16.7005 4.57219C9.62567 4.57219 4.95722 9.91444 4.95722 18C4.95722 26.0856 9.62567 31.4759 16.7005 31.4759C23.7754 31.4759 28.492 26.0374 28.492 18Z" fill="white"/>
</svg>
